<svg xmlns="http://www.w3.org/2000/svg" width="56.41" height="40" viewBox="0 0 56.41 40">
  <path id="Path_909" data-name="Path 909" d="M1068.128-111.145a10.451,10.451,0,0,0,6.3-2.543,6.639,6.639,0,0,0,.243-2.071c-.148-4.886-3.847-5.463-4.71-5.53h-14.968a2.051,2.051,0,0,1-2.051-2.051,2.051,2.051,0,0,1,2.051-2.051h15.038a9.147,9.147,0,0,1,8.015,5.745,11.746,11.746,0,0,0,.336-2.754,11.283,11.283,0,0,0-6.839-10.5,2.035,2.035,0,0,1,.453,1.272,2.051,2.051,0,0,1-2.051,2.051h-14.968c-.863.068-4.561.644-4.709,5.53a5.023,5.023,0,0,0,4.728,5.565h13.99a2.052,2.052,0,0,1,2.051,2.051,2.051,2.051,0,0,1-2.051,2.051l-14.217,0a9.093,9.093,0,0,1-8.6-9.788c.218-7.205,5.749-9.368,8.643-9.506l14.94,0a10.847,10.847,0,0,0-10.343-8.205,10.2,10.2,0,0,0-1.258.084,13.377,13.377,0,0,0-12.588-9.315,13.6,13.6,0,0,0-13.333,13.846c0,.237.023.467.034.7a12.668,12.668,0,0,0-10.29,12.633,12.572,12.572,0,0,0,12.308,12.821h33.846Z" transform="translate(-1021.974 151.118)" fill="#00a3e1"/>
</svg>
