<svg xmlns="http://www.w3.org/2000/svg" width="192.641" height="38.615" viewBox="0 0 192.641 38.615">
  <g id="Group_1941" data-name="Group 1941" transform="translate(-20.666 -379.735)">
    <g id="Group_1939" data-name="Group 1939" transform="translate(82.24 413.576)">
      <path id="Path_1386" data-name="Path 1386" d="M296.8,511.009v.891h-1.59v3.88h-.954V511.9h-1.59v-.891Z" transform="translate(-292.662 -511.006)" fill="#fff"/>
      <path id="Path_1387" data-name="Path 1387" d="M317.753,515.769V511h.954v1.909h2.224V511h.954v4.771l-.954,0V513.8h-2.224v1.972Z" transform="translate(-312.257 -510.995)" fill="#fff"/>
      <path id="Path_1388" data-name="Path 1388" d="M344.24,515.78v-4.768l3.505,0v.891h-2.551v1.018h1.912v.887h-1.912v1.085h2.545v.891Z" transform="translate(-332.943 -511.006)" fill="#fff"/>
      <path id="Path_1389" data-name="Path 1389" d="M380.355,515.095a2.387,2.387,0,0,1,1.7-4.086,2.58,2.58,0,0,1,1.753.636l-.636.7a1.76,1.76,0,0,0-1.117-.382,1.36,1.36,0,0,0-1.428,1.419,1.432,1.432,0,0,0,.4,1.056,1.41,1.41,0,0,0,1.037.391,1.709,1.709,0,0,0,1.11-.379l.636.7a2.572,2.572,0,0,1-1.753.636A2.32,2.32,0,0,1,380.355,515.095Z" transform="translate(-360.612 -511.006)" fill="#0094dd"/>
      <path id="Path_1390" data-name="Path 1390" d="M407.212,511.009v3.881h2.545v.891h-3.5v-4.771Z" transform="translate(-381.378 -511.006)" fill="#0094dd"/>
      <path id="Path_1391" data-name="Path 1391" d="M428.374,515.095a2.458,2.458,0,1,1,1.7.685A2.311,2.311,0,0,1,428.374,515.095Zm1.7-.205a1.34,1.34,0,0,0,1.031-.43,1.627,1.627,0,0,0,0-2.131,1.459,1.459,0,0,0-2.068,0,1.627,1.627,0,0,0,0,2.131A1.347,1.347,0,0,0,430.079,514.89Z" transform="translate(-398.115 -511.006)" fill="#0094dd"/>
      <path id="Path_1392" data-name="Path 1392" d="M456.307,511.009v2.767a.957.957,0,0,0,.318.8,1.37,1.37,0,0,0,1.59,0,.958.958,0,0,0,.318-.8v-2.767h.954v3.022a1.581,1.581,0,0,1-.588,1.241,2.4,2.4,0,0,1-2.958,0,1.581,1.581,0,0,1-.589-1.241v-3.022Z" transform="translate(-419.72 -511.006)" fill="#0094dd"/>
      <path id="Path_1393" data-name="Path 1393" d="M481.911,515.769V511h1.839q2.227,0,2.227,2.389t-2.227,2.385Zm1.839-.951q1.269,0,1.272-1.435t-1.272-1.431h-.884v2.866Z" transform="translate(-440.461 -510.995)" fill="#0094dd"/>
      <path id="Path_1394" data-name="Path 1394" d="M520.873,515.095a2.387,2.387,0,0,1,1.7-4.086,2.58,2.58,0,0,1,1.753.636l-.636.7a1.76,1.76,0,0,0-1.117-.382,1.36,1.36,0,0,0-1.428,1.419,1.433,1.433,0,0,0,.4,1.056,1.409,1.409,0,0,0,1.037.391,1.709,1.709,0,0,0,1.11-.379l.636.7a2.573,2.573,0,0,1-1.753.636A2.32,2.32,0,0,1,520.873,515.095Z" transform="translate(-470.353 -511.006)" fill="#0094dd"/>
      <path id="Path_1395" data-name="Path 1395" d="M546.312,515.095a2.458,2.458,0,1,1,1.7.685A2.311,2.311,0,0,1,546.312,515.095Zm1.7-.205a1.34,1.34,0,0,0,1.031-.43,1.627,1.627,0,0,0,0-2.131,1.459,1.459,0,0,0-2.068,0,1.627,1.627,0,0,0,0,2.131A1.347,1.347,0,0,0,548.017,514.89Z" transform="translate(-490.222 -511.006)" fill="#0094dd"/>
      <path id="Path_1396" data-name="Path 1396" d="M573.625,515.78v-4.771h.318l2.99,2.99v-2.99h.954v4.771h-.35l-2.958-2.958v2.958Z" transform="translate(-512.087 -511.006)" fill="#0094dd"/>
      <path id="Path_1397" data-name="Path 1397" d="M600.575,515.78v-4.771h.318l2.99,2.99v-2.99h.954v4.771h-.35l-2.958-2.958v2.958Z" transform="translate(-533.134 -511.006)" fill="#0094dd"/>
      <path id="Path_1398" data-name="Path 1398" d="M627.469,515.78v-4.768l3.505,0v.891h-2.551v1.018h1.912v.887h-1.912v1.085h2.545v.891Z" transform="translate(-554.138 -511.006)" fill="#0094dd"/>
      <path id="Path_1399" data-name="Path 1399" d="M650.443,515.095a2.387,2.387,0,0,1,1.7-4.086,2.581,2.581,0,0,1,1.753.636l-.636.7a1.76,1.76,0,0,0-1.116-.382,1.36,1.36,0,0,0-1.428,1.419,1.432,1.432,0,0,0,.4,1.056,1.409,1.409,0,0,0,1.037.391,1.708,1.708,0,0,0,1.11-.379l.636.7a2.573,2.573,0,0,1-1.753.636A2.321,2.321,0,0,1,650.443,515.095Z" transform="translate(-571.545 -511.006)" fill="#0094dd"/>
      <path id="Path_1400" data-name="Path 1400" d="M679.333,511.009v.891h-1.59v3.88h-.954V511.9H675.2v-.891Z" transform="translate(-591.413 -511.006)" fill="#0094dd"/>
      <path id="Path_1401" data-name="Path 1401" d="M713.041,515.095a2.387,2.387,0,0,1,1.7-4.086,2.58,2.58,0,0,1,1.753.636l-.636.7a1.76,1.76,0,0,0-1.117-.382,1.36,1.36,0,0,0-1.428,1.419,1.432,1.432,0,0,0,.4,1.056,1.409,1.409,0,0,0,1.037.391,1.709,1.709,0,0,0,1.11-.379l.636.7a2.572,2.572,0,0,1-1.753.636A2.321,2.321,0,0,1,713.041,515.095Z" transform="translate(-620.432 -511.006)" fill="#fff"/>
      <path id="Path_1402" data-name="Path 1402" d="M738.481,515.095a2.458,2.458,0,1,1,1.7.685A2.312,2.312,0,0,1,738.481,515.095Zm1.7-.205a1.34,1.34,0,0,0,1.031-.43,1.626,1.626,0,0,0,0-2.131,1.459,1.459,0,0,0-2.067,0,1.626,1.626,0,0,0,0,2.131A1.347,1.347,0,0,0,740.186,514.89Z" transform="translate(-640.301 -511.006)" fill="#fff"/>
      <path id="Path_1403" data-name="Path 1403" d="M765.793,515.78v-4.771h.318l2.068,2.354,2.071-2.354h.318v4.771h-.955l0-2.767-1.431,1.59-1.432-1.59v2.767Z" transform="translate(-662.165 -511.006)" fill="#fff"/>
      <path id="Path_1404" data-name="Path 1404" d="M794.908,515.78v-4.771h2.08q1.67,0,1.67,1.374,0,1.425-1.667,1.425h-1.129v1.972Zm.954-2.863H797.2q.576-.01.592-.525-.015-.471-.582-.49h-1.345Z" transform="translate(-684.903 -511.006)" fill="#fff"/>
      <path id="Path_1405" data-name="Path 1405" d="M817.066,515.78l1.909-4.771h.954l1.905,4.768-1.015,0-.286-.731h-2.163l-.286.731Zm2.411-3.5-.725,1.813h1.431Z" transform="translate(-702.208 -511.006)" fill="#fff"/>
      <path id="Path_1406" data-name="Path 1406" d="M845.063,515.78v-4.771h.318l2.99,2.99v-2.99h.954v4.771h-.35l-2.958-2.958v2.958Z" transform="translate(-724.073 -511.006)" fill="#fff"/>
      <path id="Path_1407" data-name="Path 1407" d="M870.736,511.009h1.12l1.107,1.559,1.132-1.559h1.094l-1.749,2.386v2.385h-.954v-2.385Z" transform="translate(-744.123 -511.006)" fill="#fff"/>
    </g>
    <path id="Path_1408" data-name="Path 1408" d="M510.76,248.353a2.3,2.3,0,0,1,.216.983,2.121,2.121,0,0,1-2.223,2.161l-13.311-.025c-3.183,0-5.008,1.871-5.008,5.133s1.825,5.133,5.008,5.133h11.6a2.121,2.121,0,0,1,2.223,2.161,2.174,2.174,0,0,1-2.223,2.223H495.756c-5.812,0-9.423-3.647-9.423-9.517s3.611-9.518,9.423-9.518l13,.025a2.3,2.3,0,0,1,.989.219,10.319,10.319,0,0,0-2.133-4.227,8.944,8.944,0,0,0-9.369-2.9,15.016,15.016,0,0,0-3.535-6.064,12.378,12.378,0,0,0-9.7-3.577,13.062,13.062,0,0,0-12.1,9.857,16.608,16.608,0,0,0-.515,4.624,10.852,10.852,0,0,0-7.442,4.421,12.507,12.507,0,0,0,.014,14.439c2.839,4.031,7.187,4.86,10.217,5.127,1.71.157,11.508.152,21.181.107l3.507-.018h8.388a6.868,6.868,0,0,0,1.274-.117c2.389-.449,3.734-2.219,3.734-5.017,0-3.262-1.826-5.133-5.008-5.133h-11.6a2.121,2.121,0,0,1-2.223-2.16,2.174,2.174,0,0,1,2.223-2.223h11.287c5.348,0,8.83,3.089,9.352,8.156a10.292,10.292,0,0,0-6.538-14.277Z" transform="translate(-442 149.18)" fill="#0094dd"/>
    <g id="Group_1940" data-name="Group 1940" transform="translate(82.241 398.521)">
      <path id="Path_1409" data-name="Path 1409" d="M613.578,450.074V444.2c0-.524.457-.9,1.112-.9a1,1,0,0,1,1.092.9v5.876c0,1.948,1.271,2.21,2.541,2.21,1.231,0,2.541-.262,2.541-2.21V444.2a.985.985,0,0,1,1.092-.9,1.016,1.016,0,0,1,1.112.9v5.876c0,4.01-3.574,4.026-4.745,4.026C617.132,454.1,613.578,454.084,613.578,450.074Z" transform="translate(-542.856 -443.162)" fill="#fff"/>
      <path id="Path_1410" data-name="Path 1410" d="M686.329,443.579a1.006,1.006,0,0,1-1.092.917H682.5v8.085a1,1,0,0,1-1.112.9c-.635,0-1.092-.36-1.092-.9V444.5h-2.759a1.025,1.025,0,0,1-1.072-.917.99.99,0,0,1,1.072-.9h7.7A.974.974,0,0,1,686.329,443.579Z" transform="translate(-591.967 -442.679)" fill="#fff"/>
      <path id="Path_1411" data-name="Path 1411" d="M748.644,452.581v-9a1,1,0,0,1,1.092-.9c.655,0,1.092.377,1.092.9v9a.982.982,0,0,1-1.092.9A1.019,1.019,0,0,1,748.644,452.581Z" transform="translate(-648.339 -442.679)" fill="#fff"/>
      <path id="Path_1412" data-name="Path 1412" d="M780.863,448.08c0-4.877,4.09-5.4,5.837-5.4a13.22,13.22,0,0,1,3.063.289.984.984,0,0,1,.808,1.315c-.218.458-.95.606-1.668.426a7.794,7.794,0,0,0-2.2-.213c-1.39,0-3.633.458-3.633,3.584s2.243,3.584,3.633,3.584a9.329,9.329,0,0,0,2.383-.278,1.2,1.2,0,0,1,1.449.458c.238.475-.16.933-.788,1.195a7.706,7.706,0,0,1-3.043.442C784.953,453.481,780.863,452.957,780.863,448.08Z" transform="translate(-673.502 -442.679)" fill="#fff"/>
      <path id="Path_1413" data-name="Path 1413" d="M848.8,443.25l3.931,9.035a.982.982,0,0,1-.675,1.146,1.3,1.3,0,0,1-1.41-.557c-.6-1.375-1.112-2.57-1.628-3.764-.5-1.162-.675-1.506-1.271-2.881-.417.966-.834,1.915-1.251,2.881-.536,1.244-1.092,2.5-1.648,3.764a1.214,1.214,0,0,1-1.39.557c-.457-.18-.854-.687-.675-1.146l3.971-9.018a1.279,1.279,0,0,1,1.013-.589A1.124,1.124,0,0,1,848.8,443.25Z" transform="translate(-721.828 -442.677)" fill="#fff"/>
      <path id="Path_1414" data-name="Path 1414" d="M474.391,453.366l-4.241-4.077-.419-.413v3.929a1.006,1.006,0,0,1-1.046.908.969.969,0,0,1-1.046-.908v-9.079a.949.949,0,0,1,1.046-.908h3.4a3.045,3.045,0,1,1,.418,6.058l.818.776c.894.859,1.769,1.717,2.663,2.559a.847.847,0,0,1-.057,1.255,1.443,1.443,0,0,1-.723.248A1.221,1.221,0,0,1,474.391,453.366Zm-4.66-6.207a1.192,1.192,0,0,1,.437-.1h1.921a1.31,1.31,0,0,0,1.407-1.221,1.3,1.3,0,0,0-1.407-1.188h-2.358Z" transform="translate(-428.882 -442.787)" fill="#fff"/>
      <path id="Path_1415" data-name="Path 1415" d="M536.415,452.805a.975.975,0,0,1-1.027.908h-6.01a.958.958,0,0,1-1.046-.908v-9.079a.939.939,0,0,1,1.046-.908h6.01a.954.954,0,0,1,1.027.908.988.988,0,0,1-1.027.925h-4.983v2.41h4.6a.961.961,0,0,1,1.046.908,1.006,1.006,0,0,1-1.046.924h-4.6v2.988h4.983A.977.977,0,0,1,536.415,452.805Z" transform="translate(-476.281 -442.787)" fill="#fff"/>
      <path id="Path_1416" data-name="Path 1416" d="M343.539,448.56c0-4.877,4.09-5.4,5.837-5.4a13.212,13.212,0,0,1,3.063.289.984.984,0,0,1,.808,1.315c-.218.458-.95.606-1.668.426a7.8,7.8,0,0,0-2.2-.213c-1.39,0-3.633.458-3.633,3.584s2.243,3.584,3.633,3.584a9.337,9.337,0,0,0,2.383-.278,1.2,1.2,0,0,1,1.449.458c.238.475-.16.933-.789,1.2a7.71,7.71,0,0,1-3.043.442C347.629,453.961,343.539,453.438,343.539,448.56Z" transform="translate(-331.963 -443.053)" fill="#fff"/>
      <path id="Path_1417" data-name="Path 1417" d="M411.86,444.227a8.233,8.233,0,0,0-5.369,0,3.514,3.514,0,0,0-2.06,3.574v2.75a3.512,3.512,0,0,0,2.061,3.578,8.233,8.233,0,0,0,5.369,0,3.514,3.514,0,0,0,2.06-3.574v-2.75A3.513,3.513,0,0,0,411.86,444.227Zm-2.684,8.538c-1.271,0-2.541-.262-2.541-2.21v-2.75c0-1.948,1.31-2.209,2.541-2.209,1.271,0,2.541.262,2.541,2.209v2.75C411.717,452.5,410.407,452.765,409.176,452.765Z" transform="translate(-379.518 -443.538)" fill="#fff"/>
      <path id="Path_1418" data-name="Path 1418" d="M291.4,453.333a.9.9,0,0,1-.666-1.139,1.036,1.036,0,0,1,1.274-.578,9.679,9.679,0,0,0,2.206.264,4,4,0,0,0,1.788-.363,1.06,1.06,0,0,0,.475-.957c0-1.057-1.141-1.469-2.358-1.915-1.579-.594-3.252-1.188-3.252-3.07a2.217,2.217,0,0,1,.989-1.948,5.72,5.72,0,0,1,3.29-.809,13.623,13.623,0,0,1,1.864.132c.745.083,1.141.594,1.065,1.089-.1.462-.45.8-1.179.727a13.793,13.793,0,0,0-1.75-.116,3.561,3.561,0,0,0-1.94.38.652.652,0,0,0-.247.545c0,.644,1.183,1.158,2,1.4s3.613,1.436,3.613,3.582a2.9,2.9,0,0,1-1.312,2.427,5.77,5.77,0,0,1-3.043.726A11.166,11.166,0,0,1,291.4,453.333Z" transform="translate(-290.685 -442.787)" fill="#fff"/>
    </g>
  </g>
</svg>
